<svg width="100" height="100" viewBox="0 0 100 100" fill="none" xmlns="http://www.w3.org/2000/svg">
<g clip-path="url(#clip0_15_2)">
<path d="M0.9375 83L22.9297 25.7344H31.0938L54.5312 83H45.8984L39.2188 65.6562H15.2734L8.98438 83H0.9375ZM17.4609 59.4844H36.875L30.8984 43.625C29.0755 38.8073 27.7214 34.849 26.8359 31.75C26.1068 35.4219 25.0781 39.0677 23.75 42.6875L17.4609 59.4844ZM86.7578 77.8828C84.1536 80.0964 81.6406 81.6589 79.2188 82.5703C76.8229 83.4818 74.2448 83.9375 71.4844 83.9375C66.9271 83.9375 63.4245 82.8307 60.9766 80.6172C58.5286 78.3776 57.3047 75.526 57.3047 72.0625C57.3047 70.0312 57.7604 68.1823 58.6719 66.5156C59.6094 64.8229 60.8203 63.4688 62.3047 62.4531C63.8151 61.4375 65.5078 60.6693 67.3828 60.1484C68.763 59.7839 70.8464 59.4323 73.6328 59.0938C79.3099 58.4167 83.4896 57.6094 86.1719 56.6719C86.1979 55.7083 86.2109 55.0964 86.2109 54.8359C86.2109 51.9714 85.5469 49.9531 84.2188 48.7812C82.4219 47.1927 79.7526 46.3984 76.2109 46.3984C72.9036 46.3984 70.4557 46.9844 68.8672 48.1562C67.3047 49.3021 66.1458 51.3464 65.3906 54.2891L58.5156 53.3516C59.1406 50.4089 60.1693 48.0391 61.6016 46.2422C63.0339 44.4193 65.1042 43.026 67.8125 42.0625C70.5208 41.0729 73.6589 40.5781 77.2266 40.5781C80.7682 40.5781 83.6458 40.9948 85.8594 41.8281C88.0729 42.6615 89.7005 43.7161 90.7422 44.9922C91.7839 46.2422 92.513 47.8307 92.9297 49.7578C93.1641 50.9557 93.2812 53.1172 93.2812 56.2422V65.6172C93.2812 72.1536 93.4245 76.2943 93.7109 78.0391C94.0234 79.7578 94.6224 81.4115 95.5078 83H88.1641C87.4349 81.5417 86.9661 79.8359 86.7578 77.8828ZM86.1719 62.1797C83.6198 63.2214 79.7917 64.1068 74.6875 64.8359C71.7969 65.2526 69.7526 65.7214 68.5547 66.2422C67.3568 66.763 66.4323 67.5312 65.7812 68.5469C65.1302 69.5365 64.8047 70.6432 64.8047 71.8672C64.8047 73.7422 65.5078 75.3047 66.9141 76.5547C68.3464 77.8047 70.4297 78.4297 73.1641 78.4297C75.8724 78.4297 78.2812 77.8438 80.3906 76.6719C82.5 75.474 84.0495 73.8464 85.0391 71.7891C85.7943 70.2005 86.1719 67.8568 86.1719 64.7578V62.1797Z" fill="white"/>
</g>
<defs>
<clipPath id="clip0_15_2">
<rect width="100" height="100" fill="white"/>
</clipPath>
</defs>
</svg>
