<svg width="100" height="100" viewBox="0 0 100 100" fill="none" xmlns="http://www.w3.org/2000/svg">
<g clip-path="url(#clip0_15_2)">
<path d="M56.1318 82H43.8682L38.9932 69.3174H16.6748L12.0664 82H0.107422L21.8545 26.166H33.7754L56.1318 82ZM35.375 59.9102L27.6816 39.1914L20.1406 59.9102H35.375ZM70.0713 53.8926L60.3594 52.1406C61.4512 48.2305 63.3301 45.3359 65.9961 43.457C68.6621 41.5781 72.623 40.6387 77.8789 40.6387C82.6523 40.6387 86.207 41.21 88.543 42.3525C90.8789 43.4697 92.5166 44.9043 93.4561 46.6562C94.4209 48.3828 94.9033 51.5693 94.9033 56.2158L94.7891 68.708C94.7891 72.2627 94.9541 74.8906 95.2842 76.5918C95.6396 78.2676 96.2871 80.0703 97.2266 82H86.6387C86.3594 81.2891 86.0166 80.2354 85.6104 78.8389C85.4326 78.2041 85.3057 77.7852 85.2295 77.582C83.4014 79.3594 81.4463 80.6924 79.3643 81.5811C77.2822 82.4697 75.0605 82.9141 72.6992 82.9141C68.5352 82.9141 65.2471 81.7842 62.835 79.5244C60.4482 77.2646 59.2549 74.4082 59.2549 70.9551C59.2549 68.6699 59.8008 66.6387 60.8926 64.8613C61.9844 63.0586 63.5078 61.6875 65.4629 60.748C67.4434 59.7832 70.2871 58.9453 73.9941 58.2344C78.9961 57.2949 82.4619 56.4189 84.3916 55.6064V54.54C84.3916 52.4834 83.8838 51.0234 82.8682 50.1602C81.8525 49.2715 79.9355 48.8271 77.1172 48.8271C75.2129 48.8271 73.7275 49.208 72.6611 49.9697C71.5947 50.7061 70.7314 52.0137 70.0713 53.8926ZM84.3916 62.5762C83.0205 63.0332 80.8496 63.5791 77.8789 64.2139C74.9082 64.8486 72.9658 65.4707 72.0518 66.0801C70.6553 67.0703 69.957 68.3271 69.957 69.8506C69.957 71.3486 70.5156 72.6436 71.6328 73.7354C72.75 74.8271 74.1719 75.373 75.8984 75.373C77.8281 75.373 79.6689 74.7383 81.4209 73.4688C82.7158 72.5039 83.5664 71.3232 83.9727 69.9268C84.252 69.0127 84.3916 67.2734 84.3916 64.709V62.5762Z" fill="white"/>
</g>
<defs>
<clipPath id="clip0_15_2">
<rect width="100" height="100" fill="white"/>
</clipPath>
</defs>
</svg>
