<?xml version="1.0" encoding="utf-8"?>
<svg viewBox="0 0 500 500" xmlns="http://www.w3.org/2000/svg">
  <path style="stroke: none; fill: rgb(239, 105, 56);" d="M 187.284 167.144 L 188.705 167.144 L 188.705 165.723 L 189.652 168.091 L 187.284 167.617 L 187.284 169.512 L 187.758 169.512 L 189.179 168.091 L 189.652 169.039 L 188.705 169.986 L 188.705 170.46 C 189.492 171.211 189.551 171.881 188.231 171.881 L 188.231 174.25 L 189.179 172.354 L 191.074 172.354 L 192.968 174.25 L 192.968 174.723 L 192.021 175.196 C 193.455 176.272 191.681 176.074 192.495 177.565 C 192.932 178.367 198.486 182.616 195.337 181.829 C 196.26 183.321 196.933 183.538 198.652 183.25 L 197.231 185.618 L 198.652 185.618 L 199.127 185.618 L 199.127 188.934 L 201.495 188.934 L 201.495 189.407 L 200.074 189.407 L 200.074 189.881 L 204.811 189.881 L 204.811 191.776 L 201.969 191.776 L 202.442 190.829 L 200.548 191.302 L 200.548 192.723 L 201.969 191.776 L 202.916 191.776 L 204.337 193.197 L 201.021 193.671 L 202.442 195.092 L 204.337 193.671 L 204.811 193.671 L 206.232 193.671 L 206.232 195.565 L 203.864 195.092 L 203.864 195.565 L 205.285 196.04 L 203.864 196.513 L 203.39 195.092 L 202.916 195.092 L 201.021 196.513 L 201.021 196.986 L 203.864 196.513 L 203.864 196.986 L 202.916 196.986 L 202.916 197.461 L 204.337 197.461 L 204.337 197.934 L 203.39 198.408 L 204.811 198.882 L 204.337 196.986 L 206.232 197.461 L 205.285 197.934 L 205.285 198.408 L 207.179 197.934 L 207.179 199.355 L 205.758 198.882 C 202.828 204.409 191.202 206.983 185.862 210.251 L 185.862 210.724 C 206.522 201.822 225.434 193.273 248.391 192.268 C 312.441 189.464 370.517 238.309 381.774 300.728 C 384.557 316.16 384.359 331.768 381.187 347.15 C 379.645 354.622 378.243 362.349 376.537 369.714 L 376.177 370.608 L 376.291 368.467 L 377.953 366.041 L 378.903 366.279 L 378.659 367.519 L 376.764 367.519 L 376.764 367.993 L 377.712 368.467 L 379.133 366.571 L 380.08 367.993 L 382.449 368.94 L 381.501 367.519 L 383.396 367.993 L 382.922 369.414 L 378.185 368.94 L 378.659 370.361 C 380.048 369.663 381.748 369.395 381.975 371.309 L 382.922 370.361 L 383.396 370.361 L 383.87 371.782 L 385.764 373.204 L 386.239 373.204 L 387.185 372.256 L 388.133 373.677 L 387.66 376.046 L 389.081 374.151 L 389.554 374.151 L 391.449 376.994 L 389.554 376.519 L 391.449 378.415 L 390.975 377.467 L 392.396 376.994 L 392.87 376.994 L 391.923 379.361 L 394.291 378.888 L 394.291 379.361 L 392.87 380.309 L 393.344 380.783 L 394.291 379.836 L 394.291 381.73 L 397.133 380.783 L 397.133 381.257 L 395.712 382.204 L 396.66 384.099 L 397.607 383.625 L 397.133 385.046 L 398.554 386.467 L 400.923 385.52 L 403.292 389.309 L 403.765 389.309 C 404.7 388.756 404.568 388.695 404.713 389.783 L 405.186 389.783 L 406.608 386.941 L 407.081 389.783 L 405.66 389.309 L 405.66 389.783 L 407.081 390.257 L 407.555 388.836 L 408.029 388.836 L 406.134 408.257 C 412.438 404.617 418.348 399.031 423.661 394.088 C 463.249 357.261 467.999 296.139 449.714 247.673 C 441.594 257.372 437.273 267.26 423.661 270.41 C 421.417 250.426 428.797 230.016 430.686 210.251 C 433.393 181.925 425.101 154.297 408.867 131.143 C 402.898 122.627 395.027 110.023 385.291 105.563 C 382.423 121.004 379.774 134.92 369.048 147.248 C 366.564 150.104 360.273 157.836 355.922 155.792 C 351.311 153.627 348.265 147.804 346.091 143.458 C 340.577 132.429 340.36 119.405 342.475 107.457 C 343.534 101.479 345.955 95.488 346.447 89.457 L 345.974 89.457 L 326.17 117.878 L 309.498 145.353 C 304.129 139.143 300.989 130.964 297.618 123.563 C 287.82 102.052 282.669 78.657 279.31 55.35 C 277.987 46.165 276.858 36.677 276.814 27.401 C 276.803 25.182 277.936 18.484 276.054 16.993 C 273.749 15.169 266.32 17.224 263.55 17.588 C 250.049 19.362 237.419 25.282 226.127 32.679 C 193.772 53.875 187.309 89.887 184.873 125.458 C 183.958 138.82 183.41 154.159 187.284 167.144 M 152.703 68.614 C 147.662 77.703 142.266 85.809 138.585 95.615 C 137.234 99.212 135.071 104.102 136.124 107.931 C 137.054 110.555 136.271 107.298 136.663 110.196 L 138.078 109.686 C 138.502 105.622 137.088 111.467 137.072 108.878 L 136.598 110.299 L 139.914 113.142 L 139.914 113.615 L 138.967 114.089 L 138.967 115.984 L 138.967 116.457 L 142.756 117.405 L 141.809 118.826 L 143.23 117.878 C 143.378 119.108 143.448 119.074 144.651 118.826 L 144.651 119.3 L 143.23 119.774 L 144.651 121.195 L 144.177 123.563 L 148.914 124.037 L 147.967 126.405 L 150.809 127.353 L 148.914 128.301 L 149.861 129.247 L 151.757 129.247 L 151.282 130.668 L 152.703 129.722 L 152.703 132.09 L 153.178 132.09 L 153.178 130.668 L 155.546 130.668 C 154.509 132.45 155.211 133.996 156.967 134.932 L 156.967 135.406 L 155.546 135.406 L 155.546 135.88 L 157.441 135.406 L 158.388 135.88 L 159.336 138.248 L 157.915 137.301 L 158.862 138.248 L 158.862 138.722 L 156.967 138.248 L 154.125 140.143 L 154.125 140.616 C 160.739 139.939 165.324 133.218 165.487 126.879 C 165.726 117.591 157.453 111.849 155.146 103.194 C 153.177 95.808 152.703 88.054 152.703 80.456 C 152.703 77.094 153.936 71.635 152.703 68.614 Z"/>
  <path style="fill: rgb(239, 105, 56); stroke: none;" d="M 136.761 105.514 L 137.236 105.988 L 136.761 105.514 M 136.919 106.777 L 137.078 107.092 L 136.919 106.777 M 138.182 106.935 L 138.182 110.724 L 138.657 110.724 L 139.604 109.777 L 138.182 106.935 M 140.551 106.935 L 141.025 107.409 L 140.551 106.935 M 136.288 107.882 L 136.761 108.356 L 136.288 107.882 M 139.604 108.356 L 140.078 108.83 L 139.604 108.356 M 136.288 109.303 L 136.761 109.777 L 136.288 109.303 M 137.236 109.303 C 131.829 117.057 136.315 133.693 143.867 138.642 C 146.295 140.233 156.957 143.569 157.605 138.673 L 159.499 139.147 L 159.499 138.673 L 158.552 137.726 L 159.974 138.673 L 158.078 135.831 L 156.184 136.304 L 156.184 135.831 L 157.605 135.831 L 157.605 135.357 C 156.21 134.119 155.636 132.93 156.184 131.093 C 154.792 130.92 154.05 131.034 153.815 132.514 L 153.341 132.514 L 153.341 130.147 L 151.92 131.093 L 152.394 129.672 L 149.551 128.726 L 150.026 127.304 L 151.447 127.778 L 150.973 126.357 L 148.605 126.83 L 149.551 124.462 L 144.815 123.988 L 145.288 121.62 L 143.867 120.199 L 145.288 119.724 L 145.288 119.251 L 143.867 118.303 L 142.446 119.251 L 143.394 117.83 L 139.604 116.882 L 139.604 116.409 L 139.604 114.514 L 140.551 113.567 L 137.236 110.724 L 137.236 109.303 M 139.13 110.724 L 139.604 111.198 L 139.13 110.724 M 140.078 110.724 L 140.078 112.146 L 140.551 112.146 L 141.025 112.146 L 140.078 110.724 Z"/>
  <path style="fill: rgb(239, 105, 56); stroke: none;" d="M 140.551 113.093 L 140.551 113.567 L 141.499 113.093 L 141.499 113.567 L 141.499 115.461 L 141.972 115.461 L 141.499 114.514 L 141.972 114.514 L 142.92 114.988 L 143.394 114.988 L 143.394 114.514 L 141.499 112.619 L 140.551 113.093 Z"/>
  <path style="fill: rgb(239, 105, 56); stroke: none;" d="M 144.341 114.514 L 144.815 114.988 L 144.341 114.514 M 146.236 114.988 L 146.709 115.461 L 146.236 114.988 Z"/>
  <path style="fill: rgb(245, 180, 51); stroke: none;" d="M 139.13 115.461 L 139.604 115.935 L 139.13 115.461 Z"/>
  <path style="fill: rgb(239, 105, 56); stroke: none;" d="M 142.92 115.461 L 141.025 115.935 L 141.025 116.409 L 142.92 117.357 L 142.92 115.461 M 144.815 115.935 L 145.288 116.409 L 144.815 115.935 M 143.867 116.409 L 144.341 116.882 L 143.867 116.409 Z"/>
  <path style="fill: rgb(245, 180, 51); stroke: none;" d="M 139.604 117.357 L 139.13 118.303 L 139.604 117.357 Z"/>
  <path style="fill: rgb(239, 105, 56); stroke: none;" d="M 143.394 117.357 L 143.867 117.83 L 143.394 117.357 M 144.341 117.83 L 144.341 118.303 L 146.236 118.778 L 145.762 117.357 L 144.341 117.83 Z"/>
  <path style="fill: rgb(245, 180, 51); stroke: none;" d="M 138.182 117.83 L 138.657 118.303 L 138.182 117.83 M 141.499 117.83 L 141.972 118.303 L 141.499 117.83 Z"/>
  <path style="fill: rgb(239, 105, 56); stroke: none;" d="M 148.605 118.303 L 149.078 118.778 L 148.605 118.303 M 146.236 119.251 L 146.709 119.724 L 146.236 119.251 Z"/>
  <path style="fill: rgb(239, 105, 56); stroke: none;" d="M 144.815 120.199 L 145.288 121.62 L 145.762 121.62 L 146.236 120.199 L 144.815 120.199 M 89.866 120.672 C 83.116 148.066 79.216 179.708 81.893 207.834 C 83.059 220.088 85.056 232.17 87.061 244.308 C 87.94 249.629 90.207 256.636 88.082 261.834 C 83.468 273.125 68.005 262.123 63.377 256.623 C 50.769 241.641 43.371 218.33 42.969 198.832 L 42.495 198.832 C 38.012 208.418 36.68 219.701 35.594 230.097 C 32.278 261.853 36.305 295.324 55.585 321.995 C 62.123 331.04 69.582 339.173 78.023 346.49 C 81.464 349.474 87.361 351.706 90.055 355.255 C 93.265 359.486 93.516 368.928 95.234 374.102 C 99.66 387.428 104.979 400.229 112.771 411.999 C 148.568 466.058 215.063 494.01 278.872 484.746 C 319.186 478.892 361.156 456.434 385.448 423.368 C 391.352 415.331 397.087 407.294 402.224 398.734 C 403.234 397.05 407.619 391.798 406.298 390.208 L 406.298 389.734 L 407.719 390.208 L 407.245 387.366 L 405.824 390.208 L 405.35 390.208 L 405.35 388.787 L 404.403 389.734 L 403.929 389.734 L 401.561 385.945 L 399.192 386.892 L 397.771 385.471 L 398.244 384.05 L 397.298 384.524 L 397.771 383.103 L 396.35 382.629 L 397.771 381.682 L 397.771 381.207 L 394.929 382.155 L 394.929 380.261 L 393.981 381.207 L 393.508 380.734 L 394.929 379.786 L 394.929 379.313 L 392.56 379.786 L 393.508 377.419 L 393.034 377.419 L 391.613 377.892 L 392.087 378.84 L 391.613 378.84 L 390.192 376.944 L 392.087 377.419 L 391.613 375.997 L 390.192 374.576 L 389.718 374.576 L 388.297 376.471 L 388.771 374.102 L 387.823 372.681 L 386.875 373.629 L 386.402 373.629 L 384.033 370.786 L 383.56 370.786 L 382.612 371.734 C 382.396 369.814 380.674 369.695 379.297 370.786 L 378.823 369.365 C 380.707 369.527 382.829 370.045 384.033 368.417 L 382.139 367.944 L 383.087 369.365 L 380.718 368.417 L 379.77 366.996 L 378.349 368.892 L 377.402 368.417 L 377.402 367.944 L 379.297 367.944 L 378.349 366.05 L 377.875 366.05 L 376.928 368.892 C 374.696 369.194 373.08 375.83 372.075 377.892 C 367.615 387.037 361.985 395.707 355.416 403.472 C 337.707 424.404 313.864 439.616 287.398 446.712 C 230.971 461.842 165.42 435.879 137.453 383.576 C 126.095 362.336 121.475 338.544 122.987 314.826 C 123.799 302.082 125.357 289.495 130.266 277.467 C 139.795 254.122 153.984 235.134 173.71 219.404 C 180.34 214.118 188.224 209.225 195.975 205.771 C 199.41 204.241 205.184 203.252 206.396 199.307 L 207.817 199.78 L 207.817 198.359 L 205.922 198.832 L 205.922 198.359 L 206.869 197.886 L 204.975 197.411 L 205.448 199.307 L 204.027 198.832 L 204.975 198.359 L 204.975 197.886 L 203.554 197.886 L 203.554 197.411 L 204.501 197.411 L 204.501 196.938 L 201.659 197.411 L 201.659 196.938 L 203.08 196.938 L 203.554 195.517 L 204.027 195.517 L 205.922 196.465 L 204.501 195.99 L 204.501 195.517 L 206.869 195.99 L 206.869 194.096 L 205.448 194.096 L 204.975 194.096 L 203.08 195.517 L 201.659 194.096 L 204.975 193.622 L 203.554 192.201 L 203.08 193.148 L 202.606 192.201 L 201.185 193.148 L 201.185 191.727 L 203.08 191.254 L 202.606 192.201 L 203.08 192.201 L 205.448 192.201 L 205.448 190.306 L 200.712 190.306 L 200.712 189.832 L 202.133 189.832 L 202.133 189.359 L 199.764 189.359 L 199.764 186.043 L 199.29 186.043 L 198.817 186.99 L 197.869 186.043 L 199.29 183.675 L 195.975 182.253 C 196.841 182.599 197.706 182.139 196.922 180.832 C 195.97 179.245 190.991 175.802 193.606 175.148 L 193.606 174.675 L 191.711 172.779 L 189.816 172.779 L 189.816 174.675 C 158.646 174.675 125.442 164.44 103.645 141.041 C 97.78 134.744 94.194 127.927 89.866 120.672 Z"/>
  <path style="fill: rgb(239, 105, 56); stroke: none;" d="M 145.762 122.093 L 145.288 123.041 L 146.236 123.041 L 145.762 122.093 M 148.13 122.093 L 148.605 122.567 L 148.13 122.093 Z"/>
  <path style="fill: rgb(239, 105, 56); stroke: none;" d="M 147.184 123.041 L 147.657 123.514 L 147.184 123.041 M 148.13 123.041 L 148.605 123.514 L 148.13 123.041 M 149.551 123.041 L 150.026 123.514 L 149.551 123.041 Z"/>
  <path style="fill: rgb(245, 180, 51); stroke: none;" d="M 91.445 123.831 L 91.602 124.146 L 91.445 123.831 Z"/>
  <path style="fill: rgb(239, 105, 56); stroke: none;" d="M 151.447 123.514 L 151.92 123.988 L 151.447 123.514 Z"/>
  <path style="fill: rgb(239, 105, 56); stroke: none;" d="M 151.92 124.462 L 152.394 124.936 L 151.92 124.462 Z"/>
  <path style="fill: rgb(239, 105, 56); stroke: none;" d="M 150.026 125.409 L 150.499 125.883 L 150.026 125.409 M 152.552 125.725 L 152.71 126.04 L 152.552 125.725 Z"/>
  <path style="fill: rgb(245, 180, 51); stroke: none;" d="M 92.708 126.357 L 93.181 126.83 L 92.708 126.357 M 144.815 126.357 L 145.288 126.83 L 144.815 126.357 Z"/>
  <path style="fill: rgb(239, 105, 56); stroke: none;" d="M 151.447 126.357 L 151.92 126.83 L 151.447 126.357 Z"/>
  <path style="fill: rgb(239, 105, 56); stroke: none;" d="M 153.341 127.304 L 153.815 127.778 L 153.341 127.304 Z"/>
  <path style="fill: rgb(239, 105, 56); stroke: none;" d="M 152.394 128.251 L 152.868 129.672 L 153.341 129.672 L 153.341 128.251 L 152.394 128.251 Z"/>
  <path style="fill: rgb(239, 105, 56); stroke: none;" d="M 154.762 128.726 L 155.236 129.199 L 154.762 128.726 Z"/>
  <path style="fill: rgb(239, 105, 56); stroke: none;" d="M 154.289 130.62 L 154.762 131.093 L 154.289 130.62 Z"/>
  <path style="fill: rgb(245, 180, 51); stroke: none;" d="M 95.55 131.093 L 96.023 131.568 L 95.55 131.093 M 137.867 131.41 L 138.026 131.725 L 137.867 131.41 M 96.181 131.883 L 96.34 132.199 L 96.181 131.883 Z"/>
  <path style="fill: rgb(239, 105, 56); stroke: none;" d="M 156.342 131.883 L 156.499 132.199 L 156.342 131.883 Z"/>
  <path style="fill: rgb(245, 180, 51); stroke: none;" d="M 138.34 132.357 L 138.499 132.672 L 138.34 132.357 M 149.551 132.041 L 150.026 132.514 L 149.551 132.041 M 150.499 132.041 L 150.973 132.514 L 150.499 132.041 M 152.394 132.041 L 152.868 132.514 L 152.394 132.041 M 96.497 132.514 L 96.971 132.989 L 96.497 132.514 M 154.289 132.514 L 154.289 134.41 L 154.289 132.514 Z"/>
  <path style="fill: rgb(239, 105, 56); stroke: none;" d="M 157.605 132.514 L 158.078 132.989 L 157.605 132.514 Z"/>
  <path style="fill: rgb(239, 105, 56); stroke: none;" d="M 156.184 133.462 L 156.657 133.936 L 156.184 133.462 M 159.026 133.462 L 159.499 133.936 L 159.026 133.462 M 157.131 133.936 L 159.974 135.831 L 159.974 135.357 L 157.131 133.936 Z"/>
  <path style="fill: rgb(239, 105, 56); stroke: none;" d="M 187.921 156.2 L 188.395 156.673 L 187.921 156.2 Z"/>
  <path style="fill: rgb(239, 105, 56); stroke: none;" d="M 187.921 157.621 L 188.395 158.095 L 187.921 157.621 Z"/>
  <path style="fill: rgb(245, 180, 51); stroke: none;" d="M 125.867 158.095 L 126.34 158.568 L 125.867 158.095 M 126.657 158.726 L 126.972 158.884 L 126.657 158.726 M 127.288 159.042 L 127.761 159.516 L 127.288 159.042 M 128.078 159.674 L 128.393 159.832 L 128.078 159.674 Z"/>
  <path style="fill: rgb(239, 105, 56); stroke: none;" d="M 187.921 159.516 L 188.395 159.989 L 187.921 159.516 M 191.237 159.516 L 191.711 159.989 L 191.237 159.516 Z"/>
  <path style="fill: rgb(239, 105, 56); stroke: none;" d="M 186.974 159.989 L 187.448 161.41 L 189.343 160.937 L 189.343 160.463 L 186.974 159.989 Z"/>
  <path style="fill: rgb(239, 105, 56); stroke: none;" d="M 188.869 161.41 L 189.343 161.885 L 188.869 161.41 Z"/>
  <path style="fill: rgb(239, 105, 56); stroke: none;" d="M 187.921 161.885 L 188.869 163.306 L 187.921 161.885 Z"/>
  <path style="fill: rgb(245, 180, 51); stroke: none;" d="M 133.919 162.358 L 134.394 162.831 L 133.919 162.358 Z"/>
  <path style="fill: rgb(239, 105, 56); stroke: none;" d="M 191.08 162.516 L 191.395 162.674 L 191.08 162.516 Z"/>
  <path style="fill: rgb(245, 180, 51); stroke: none;" d="M 134.709 162.989 L 135.025 163.148 L 134.709 162.989 M 136.13 163.463 L 136.446 163.621 L 136.13 163.463 Z"/>
  <path style="fill: rgb(239, 105, 56); stroke: none;" d="M 190.29 163.779 L 190.29 164.252 L 191.711 164.252 L 191.711 163.779 L 190.29 163.779 Z"/>
  <path style="fill: rgb(239, 105, 56); stroke: none;" d="M 188.869 164.252 L 187.921 166.148 L 188.395 166.148 L 188.869 164.252 Z"/>
  <path style="fill: rgb(239, 105, 56); stroke: none;" d="M 188.869 165.673 L 188.869 166.148 L 190.29 167.569 L 190.764 167.569 L 190.764 165.2 L 188.869 165.673 Z"/>
  <path style="fill: rgb(245, 180, 51); stroke: none;" d="M 142.289 165.831 L 142.604 165.99 L 142.289 165.831 Z"/>
  <path style="fill: rgb(239, 105, 56); stroke: none;" d="M 191.711 165.673 L 192.185 166.148 L 191.711 165.673 Z"/>
  <path style="fill: rgb(245, 180, 51); stroke: none;" d="M 143.236 166.305 L 143.552 166.463 L 143.236 166.305 Z"/>
  <path style="fill: rgb(239, 105, 56); stroke: none;" d="M 189.343 166.148 L 189.343 167.569 L 187.921 167.569 L 187.921 168.042 L 190.29 168.516 L 189.343 166.148 Z"/>
  <path style="fill: rgb(245, 180, 51); stroke: none;" d="M 144.657 166.779 L 144.973 166.938 L 144.657 166.779 Z"/>
  <path style="fill: rgb(239, 105, 56); stroke: none;" d="M 187.921 166.621 L 188.395 167.095 L 187.921 166.621 M 196.448 166.621 L 196.922 167.095 L 196.448 166.621 Z"/>
  <path style="fill: rgb(239, 105, 56); stroke: none;" d="M 190.764 168.042 L 191.237 168.516 L 190.764 168.042 Z"/>
  <path style="fill: rgb(245, 180, 51); stroke: none;" d="M 149.868 168.674 L 150.183 168.832 L 149.868 168.674 Z"/>
  <path style="fill: rgb(239, 105, 56); stroke: none;" d="M 188.869 168.516 L 189.343 172.779 L 189.816 172.779 L 190.29 169.463 L 189.816 168.516 L 188.869 168.516 M 191.711 168.516 L 192.185 168.99 L 191.711 168.516 Z"/>
  <path style="fill: rgb(239, 105, 56); stroke: none;" d="M 190.29 168.99 L 190.764 169.463 L 190.29 168.99 M 193.764 169.306 L 193.922 169.621 L 193.764 169.306 Z"/>
  <path style="fill: rgb(239, 105, 56); stroke: none;" d="M 194.554 169.463 L 195.027 169.937 L 194.554 169.463 Z"/>
  <path style="fill: rgb(239, 105, 56); stroke: none;" d="M 190.764 169.937 L 190.764 170.411 L 190.764 170.885 L 192.185 170.411 L 192.185 169.937 L 190.764 169.937 M 196.448 169.937 L 196.922 170.411 L 196.448 169.937 Z"/>
  <path style="fill: rgb(239, 105, 56); stroke: none;" d="M 193.133 170.885 L 193.606 171.358 L 193.133 170.885 Z"/>
  <path style="fill: rgb(239, 105, 56); stroke: none;" d="M 192.185 171.832 L 194.079 175.621 L 194.554 175.621 L 195.975 173.253 L 194.554 172.306 L 194.079 172.306 L 193.606 173.727 L 192.185 171.832 Z"/>
  <path style="fill: rgb(239, 105, 56); stroke: none;" d="M 196.448 173.727 L 197.396 174.675 L 196.448 173.727 Z"/>
  <path style="fill: rgb(239, 105, 56); stroke: none;" d="M 195.027 175.621 L 195.5 176.569 L 193.606 177.517 L 194.079 177.517 L 194.079 176.569 L 194.554 176.569 L 194.079 178.464 L 195.975 178.464 L 195.975 177.99 L 195.027 177.042 L 196.922 177.99 L 196.922 176.569 L 195.5 177.042 L 195.027 175.621 Z"/>
  <path style="fill: rgb(239, 105, 56); stroke: none;" d="M 197.396 176.569 L 197.869 177.042 L 197.396 176.569 M 198.817 176.569 L 199.29 177.042 L 198.817 176.569 Z"/>
  <path style="fill: rgb(245, 180, 51); stroke: none;" d="M 187.448 177.042 L 187.921 177.517 L 187.448 177.042 M 191.711 177.042 L 192.185 177.517 L 191.711 177.042 Z"/>
  <path style="fill: rgb(239, 105, 56); stroke: none;" d="M 197.869 177.517 L 196.922 178.938 L 197.869 179.411 L 197.396 179.885 L 195.5 178.938 L 195.5 179.411 L 197.396 181.306 L 197.869 181.306 L 197.869 179.411 L 198.343 179.411 L 198.343 180.359 L 198.817 180.359 L 197.869 177.517 Z"/>
  <path style="fill: rgb(239, 105, 56); stroke: none;" d="M 200.712 179.885 L 201.185 180.359 L 200.712 179.885 Z"/>
  <path style="fill: rgb(245, 180, 51); stroke: none;" d="M 193.606 180.359 L 194.079 180.832 L 193.606 180.359 M 193.606 181.306 L 194.079 181.78 L 193.606 181.306 M 195.975 181.306 L 196.448 181.78 L 195.975 181.306 Z"/>
  <path style="fill: rgb(239, 105, 56); stroke: none;" d="M 199.29 181.306 L 199.764 181.78 L 199.29 181.306 M 201.185 181.306 L 201.659 181.78 L 201.185 181.306 M 197.869 181.78 L 198.343 182.253 L 197.869 181.78 M 200.238 181.78 L 199.764 183.201 L 200.238 183.201 L 200.238 181.78 M 200.712 182.727 L 201.185 183.201 L 200.712 182.727 Z"/>
  <path style="fill: rgb(245, 180, 51); stroke: none;" d="M 194.869 183.358 L 195.185 183.517 L 194.869 183.358 Z"/>
  <path style="fill: rgb(239, 105, 56); stroke: none;" d="M 196.922 183.201 L 197.396 183.675 L 196.922 183.201 M 197.869 183.201 L 198.343 183.675 L 197.869 183.201 M 199.764 183.675 L 199.764 184.148 L 202.606 185.569 L 199.764 183.675 Z"/>
  <path style="fill: rgb(239, 105, 56); stroke: none;" d="M 204.501 184.622 L 204.027 185.569 L 204.501 184.622 M 199.922 185.411 L 200.08 185.727 L 199.922 185.411 M 200.712 185.096 L 201.185 185.569 L 200.712 185.096 M 205.448 185.569 L 205.922 186.043 L 205.448 185.569 M 200.712 186.043 L 200.238 188.411 L 200.712 188.411 L 201.185 186.517 L 201.659 186.517 L 201.659 188.885 L 202.133 188.885 L 201.659 187.464 L 204.975 189.359 L 204.501 187.938 L 204.027 187.938 L 204.501 188.885 L 204.027 188.885 L 203.08 187.464 L 205.922 187.464 L 200.712 186.043 Z"/>
  <path style="fill: rgb(245, 180, 51); stroke: none;" d="M 197.396 186.99 L 198.343 187.938 L 197.396 186.99 Z"/>
  <path style="fill: rgb(239, 105, 56); stroke: none;" d="M 208.764 186.99 L 209.238 187.464 L 208.764 186.99 Z"/>
  <path style="fill: rgb(245, 180, 51); stroke: none;" d="M 198.817 187.938 L 199.29 188.411 L 198.817 187.938 Z"/>
  <path style="fill: rgb(239, 105, 56); stroke: none;" d="M 205.448 187.938 L 205.922 188.411 L 205.448 187.938 M 207.343 187.938 L 207.817 188.411 L 207.343 187.938 M 206.396 188.411 L 206.869 188.885 L 206.396 188.411 Z"/>
  <path style="fill: rgb(245, 180, 51); stroke: none;" d="M 198.974 189.201 L 199.132 189.517 L 198.974 189.201 Z"/>
  <path style="fill: rgb(239, 105, 56); stroke: none;" d="M 202.606 189.359 L 204.975 190.306 L 204.975 189.832 L 202.606 189.359 M 205.448 189.832 L 205.922 190.306 L 205.448 189.832 Z"/>
  <path style="fill: rgb(239, 105, 56); stroke: none;" d="M 207.817 191.254 L 208.29 191.727 L 207.817 191.254 Z"/>
  <path style="fill: rgb(245, 180, 51); stroke: none;" d="M 198.817 191.727 L 199.29 192.201 L 198.817 191.727 Z"/>
  <path style="fill: rgb(239, 105, 56); stroke: none;" d="M 214.923 191.727 L 215.396 192.201 L 214.923 191.727 M 204.501 192.201 L 204.975 192.675 L 204.501 192.201 M 205.922 192.201 L 205.448 193.622 L 205.922 192.201 M 207.817 192.675 L 208.29 193.148 L 207.817 192.675 Z"/>
  <path style="fill: rgb(245, 180, 51); stroke: none;" d="M 80.865 193.148 L 81.339 193.622 L 80.865 193.148 Z"/>
  <path style="fill: rgb(239, 105, 56); stroke: none;" d="M 207.817 193.622 L 208.29 194.096 L 207.817 193.622 Z"/>
  <path style="fill: rgb(239, 105, 56); stroke: none;" d="M 207.817 194.569 L 208.29 195.044 L 207.817 194.569 M 209.712 194.569 L 209.238 195.517 L 209.712 194.569 M 211.133 195.517 L 211.606 195.99 L 211.133 195.517 M 207.343 195.99 L 207.817 196.465 L 207.343 195.99 M 213.502 195.99 L 213.975 196.465 L 213.502 195.99 Z"/>
  <path style="fill: rgb(245, 180, 51); stroke: none;" d="M 200.238 196.465 L 200.712 196.938 L 200.238 196.465 Z"/>
  <path style="fill: rgb(239, 105, 56); stroke: none;" d="M 208.29 196.465 L 206.396 196.938 L 206.396 197.411 L 208.764 197.886 L 208.29 196.465 M 209.238 197.411 L 209.712 197.886 L 209.238 197.411 Z"/>
  <path style="fill: rgb(245, 180, 51); stroke: none;" d="M 42.495 198.359 L 42.969 198.832 L 42.495 198.359 Z"/>
  <path style="fill: rgb(239, 105, 56); stroke: none;" d="M 208.764 198.359 L 209.238 198.832 L 208.764 198.359 M 212.08 198.359 L 212.554 198.832 L 212.08 198.359 Z"/>
  <path style="fill: rgb(239, 105, 56); stroke: none;" d="M 208.764 199.78 L 209.238 200.254 L 208.764 199.78 M 207.817 200.254 L 208.29 200.728 L 207.817 200.254 M 206.869 200.728 L 207.343 201.201 L 206.869 200.728 Z"/>
  <path style="fill: rgb(239, 105, 56); stroke: none;" d="M 249.503 224.887 L 256.608 224.887 C 256.608 220.148 256.558 215.409 256.729 210.676 C 256.784 209.151 257.095 206.082 255.849 204.962 C 253.818 203.135 249.848 204.327 249.18 206.894 C 247.734 212.438 249.456 219.252 249.503 224.887 Z"/>
  <path style="fill: rgb(239, 105, 56); stroke: none;" d="M 184.132 225.834 C 185.278 230.83 189.753 235.052 192.713 239.097 C 193.606 240.318 194.773 243.113 196.497 243.242 C 198.516 243.391 200.869 240.909 202.606 240.045 L 193.807 226.781 L 190.203 222.777 L 184.132 225.834 Z"/>
  <path style="fill: rgb(239, 105, 56); stroke: none;" d="M 248.555 254.729 L 248.555 284.573 C 248.555 289.025 249.296 295.479 248.106 299.711 C 247.304 302.564 241.28 304.776 239.102 306.814 C 232.947 312.57 231.082 322.15 233.982 330.048 C 237.822 340.509 249.278 344.585 259.451 342.617 C 264.102 341.717 269.031 338.124 271.745 334.31 C 273.382 332.01 274.035 327.845 276.986 326.93 C 282.711 325.157 289.519 325.403 295.452 324.759 C 308.109 323.383 320.679 321.448 333.348 320.18 C 339.568 319.558 346.205 319.656 352.295 318.205 L 352.295 325.311 L 371.718 325.311 L 371.243 317.258 L 357.034 317.737 L 352.439 317.305 L 351.349 307.311 L 350.401 307.311 L 348.98 302.099 L 287.872 309.285 L 273.669 311.006 L 267.461 305.573 L 261.832 301.525 L 261.345 288.363 L 261.345 254.729 L 248.555 254.729 Z"/>
  <path style="fill: rgb(239, 105, 56); stroke: none;" d="M 168.499 270.362 C 165.397 269.475 162.445 267.95 159.499 266.638 C 157.745 265.856 156.016 265.004 154.289 264.166 C 153.098 263.588 151.465 262.515 150.075 262.774 C 148.228 263.118 145.998 267.535 147.094 269.178 C 148.444 271.198 153.066 272.457 155.236 273.405 C 161.53 276.154 167.396 280.537 168.499 270.362 Z"/>
  <path style="fill: rgb(239, 105, 56); stroke: none;" d="M 337.611 271.309 L 338.084 271.783 L 337.611 271.309 Z"/>
  <path style="fill: rgb(245, 180, 51); stroke: none;" d="M 151.92 271.783 L 152.394 272.256 L 151.92 271.783 Z"/>
  <path style="fill: rgb(239, 105, 56); stroke: none;" d="M 339.032 271.783 L 339.505 272.256 L 339.032 271.783 Z"/>
  <path style="fill: rgb(239, 105, 56); stroke: none;" d="M 341.401 273.677 L 341.874 274.152 L 341.401 273.677 Z"/>
  <path style="fill: rgb(245, 180, 51); stroke: none;" d="M 157.131 274.152 L 157.605 274.625 L 157.131 274.152 M 131.235 274.941 L 131.393 275.256 L 131.235 274.941 M 157.92 274.783 L 158.236 274.941 L 157.92 274.783 M 166.605 274.625 L 167.078 275.098 L 166.605 274.625 M 159.026 275.098 L 159.499 275.573 L 159.026 275.098 M 159.499 275.573 L 159.974 276.046 L 159.499 275.573 M 166.131 275.573 L 166.131 276.994 L 166.605 276.994 L 166.131 275.573 M 36.495 276.362 L 36.653 276.677 L 36.495 276.362 M 130.604 276.046 L 131.077 276.519 L 130.604 276.046 M 160.762 276.204 L 161.078 276.362 L 160.762 276.204 M 161.868 276.519 L 162.341 276.994 L 161.868 276.519 M 130.288 277.309 L 130.446 277.625 L 130.288 277.309 M 162.816 276.994 L 163.289 277.467 L 162.816 276.994 M 163.763 277.467 L 164.237 277.941 L 163.763 277.467 M 165.658 277.467 L 166.131 277.941 L 165.658 277.467 Z"/>
  <path style="fill: rgb(239, 105, 56); stroke: none;" d="M 340.453 277.467 L 340.926 277.941 L 340.453 277.467 Z"/>
  <path style="fill: rgb(239, 105, 56); stroke: none;" d="M 350.401 303.047 L 350.874 303.521 L 350.401 303.047 Z"/>
  <path style="fill: rgb(239, 105, 56); stroke: none;" d="M 134.394 317.258 L 134.394 325.785 L 149.551 325.785 L 154.749 325.025 L 155.236 317.258 L 134.394 317.258 Z"/>
  <path style="fill: rgb(239, 105, 56); stroke: none;" d="M 377.875 363.681 L 378.349 364.154 L 377.875 363.681 M 379.297 363.681 L 379.77 364.154 L 379.297 363.681 Z"/>
  <path style="fill: rgb(239, 105, 56); stroke: none;" d="M 381.665 364.154 L 380.718 365.575 L 381.665 364.154 Z"/>
  <path style="fill: rgb(245, 180, 51); stroke: none;" d="M 129.34 364.944 L 129.499 365.26 L 129.34 364.944 M 164.237 364.628 L 164.71 365.102 L 164.237 364.628 Z"/>
  <path style="fill: rgb(239, 105, 56); stroke: none;" d="M 145.762 373.155 L 149.551 381.207 L 168.499 372.207 L 165.054 365.299 L 159.499 367.068 L 145.762 373.155 Z"/>
  <path style="fill: rgb(239, 105, 56); stroke: none;" d="M 379.928 364.944 L 380.086 365.26 L 379.928 364.944 Z"/>
  <path style="fill: rgb(245, 180, 51); stroke: none;" d="M 163.289 365.102 L 163.763 365.575 L 163.289 365.102 Z"/>
  <path style="fill: rgb(245, 180, 51); stroke: none;" d="M 162.341 365.575 L 162.816 366.05 L 162.341 365.575 Z"/>
  <path style="fill: rgb(239, 105, 56); stroke: none;" d="M 382.139 365.575 L 382.612 366.05 L 382.139 365.575 Z"/>
  <path style="fill: rgb(239, 105, 56); stroke: none;" d="M 379.139 366.207 L 379.454 366.365 L 379.139 366.207 M 380.56 366.207 L 380.876 366.365 L 380.56 366.207 Z"/>
  <path style="fill: rgb(245, 180, 51); stroke: none;" d="M 159.974 366.523 L 160.447 366.996 L 159.974 366.523 M 159.026 366.996 L 159.499 367.471 L 159.026 366.996 M 130.13 367.471 L 130.604 367.944 L 130.13 367.471 M 157.605 367.471 L 158.078 367.944 L 157.605 367.471 M 166.605 367.471 L 167.078 367.944 L 166.605 367.471 Z"/>
  <path style="fill: rgb(239, 105, 56); stroke: none;" d="M 384.033 367.471 L 385.454 368.892 L 384.033 367.471 M 385.929 367.471 L 386.875 368.417 L 385.929 367.471 Z"/>
  <path style="fill: rgb(245, 180, 51); stroke: none;" d="M 93.339 368.26 L 93.498 368.575 L 93.339 368.26 M 156.657 367.944 L 157.131 368.417 L 156.657 367.944 M 130.761 368.734 L 130.92 369.049 L 130.761 368.734 M 155.71 368.417 L 156.184 368.892 L 155.71 368.417 M 379.77 368.417 L 380.244 368.892 L 379.77 368.417 M 154.605 369.049 L 154.92 369.207 L 154.605 369.049 M 167.078 368.892 L 167.553 369.365 L 167.078 368.892 M 350.717 369.049 L 351.032 369.207 L 350.717 369.049 Z"/>
  <path style="fill: rgb(239, 105, 56); stroke: none;" d="M 385.929 368.892 L 384.981 371.734 L 385.454 371.734 L 385.454 369.839 L 386.402 370.313 L 385.929 368.892 Z"/>
  <path style="fill: rgb(245, 180, 51); stroke: none;" d="M 93.813 369.681 L 93.971 369.997 L 93.813 369.681 M 153.341 369.365 L 153.815 369.839 L 153.341 369.365 M 351.349 369.365 L 351.822 369.839 L 351.349 369.365 Z"/>
  <path style="fill: rgb(239, 105, 56); stroke: none;" d="M 380.718 369.365 L 381.191 369.839 L 380.718 369.365 M 384.033 369.365 L 384.033 370.786 L 384.508 370.786 L 384.033 369.365 M 388.297 369.365 L 390.192 371.734 L 390.665 371.26 L 388.297 369.365 Z"/>
  <path style="fill: rgb(245, 180, 51); stroke: none;" d="M 131.077 369.839 L 131.551 370.313 L 131.077 369.839 M 167.553 369.839 L 168.026 370.313 L 167.553 369.839 M 352.138 369.997 L 352.453 370.155 L 352.138 369.997 M 375.191 370.155 L 375.35 370.47 L 375.191 370.155 M 377.402 369.839 L 377.875 370.313 L 377.402 369.839 M 131.709 370.628 L 131.867 370.944 L 131.709 370.628 M 151.447 370.313 L 151.92 370.786 L 151.447 370.313 M 353.085 370.47 L 353.401 370.628 L 353.085 370.47 M 378.349 370.313 L 378.823 370.786 L 378.349 370.313 Z"/>
  <path style="fill: rgb(239, 105, 56); stroke: none;" d="M 383.087 370.313 L 383.56 370.786 L 383.087 370.313 Z"/>
  <path style="fill: rgb(239, 105, 56); stroke: none;" d="M 387.35 370.786 L 386.402 372.207 L 387.35 370.786 Z"/>
  <path style="fill: rgb(239, 105, 56); stroke: none;" d="M 388.613 372.365 L 388.928 372.523 L 388.613 372.365 M 390.192 372.207 L 390.665 372.681 L 390.192 372.207 Z"/>
  <path style="fill: rgb(239, 105, 56); stroke: none;" d="M 390.034 373.312 L 390.349 373.471 L 390.034 373.312 M 391.613 373.155 L 392.087 373.629 L 391.613 373.155 Z"/>
  <path style="fill: rgb(245, 180, 51); stroke: none;" d="M 145.762 373.629 L 146.236 374.102 L 145.762 373.629 M 165.184 373.629 L 165.658 374.102 L 165.184 373.629 M 384.033 373.629 L 384.508 374.102 L 384.033 373.629 Z"/>
  <path style="fill: rgb(239, 105, 56); stroke: none;" d="M 388.771 373.629 L 389.244 374.102 L 388.771 373.629 Z"/>
  <path style="fill: rgb(245, 180, 51); stroke: none;" d="M 95.234 374.418 L 95.392 374.733 L 95.234 374.418 M 133.13 374.418 L 133.288 374.733 L 133.13 374.418 M 164.237 374.102 L 164.71 374.576 L 164.237 374.102 M 373.297 374.418 L 373.454 374.733 L 373.297 374.418 M 387.35 374.102 L 387.823 374.576 L 387.35 374.102 Z"/>
  <path style="fill: rgb(239, 105, 56); stroke: none;" d="M 393.034 374.102 L 393.508 374.576 L 393.034 374.102 Z"/>
  <path style="fill: rgb(239, 105, 56); stroke: none;" d="M 390.665 375.05 L 390.665 375.523 L 392.56 377.419 L 393.981 375.997 L 392.56 376.471 L 390.665 375.05 Z"/>
  <path style="fill: rgb(245, 180, 51); stroke: none;" d="M 95.708 375.839 L 95.865 376.154 L 95.708 375.839 M 133.446 375.523 L 133.919 375.997 L 133.446 375.523 M 161.237 375.681 L 161.552 375.839 L 161.237 375.681 M 359.086 375.839 L 359.243 376.154 L 359.086 375.839 M 147.184 375.997 L 147.657 376.471 L 147.184 375.997 M 159.974 375.997 L 160.447 376.471 L 159.974 375.997 M 346.454 376.154 L 346.769 376.313 L 346.454 376.154 Z"/>
  <path style="fill: rgb(239, 105, 56); stroke: none;" d="M 395.402 375.997 L 395.877 376.471 L 395.402 375.997 Z"/>
  <path style="fill: rgb(245, 180, 51); stroke: none;" d="M 133.919 376.471 L 134.394 376.944 L 133.919 376.471 M 159.026 376.471 L 159.499 376.944 L 159.026 376.471 M 347.401 376.629 L 347.717 376.786 L 347.401 376.629 M 358.611 376.786 L 358.77 377.102 L 358.611 376.786 M 372.349 376.786 L 372.507 377.102 L 372.349 376.786 Z"/>
  <path style="fill: rgb(239, 105, 56); stroke: none;" d="M 394.455 376.471 L 394.929 376.944 L 394.455 376.471 M 396.35 376.471 L 396.823 376.944 L 396.35 376.471 Z"/>
  <path style="fill: rgb(245, 180, 51); stroke: none;" d="M 96.181 377.261 L 96.34 377.575 L 96.181 377.261 M 158.078 376.944 L 158.552 377.419 L 158.078 376.944 M 348.348 377.102 L 348.663 377.261 L 348.348 377.102 M 388.297 376.944 L 388.771 377.419 L 388.297 376.944 M 134.394 377.419 L 134.867 377.892 L 134.394 377.419 M 147.815 377.734 L 147.973 378.05 L 147.815 377.734 M 157.131 377.419 L 157.605 377.892 L 157.131 377.419 M 349.296 377.575 L 349.611 377.734 L 349.296 377.575 M 358.138 377.734 L 358.296 378.05 L 358.138 377.734 M 371.876 377.734 L 372.033 378.05 L 371.876 377.734 Z"/>
  <path style="fill: rgb(239, 105, 56); stroke: none;" d="M 395.402 377.419 L 394.455 377.892 L 395.402 379.313 L 395.877 379.313 L 396.823 377.892 L 395.402 377.419 Z"/>
  <path style="fill: rgb(245, 180, 51); stroke: none;" d="M 156.184 377.892 L 156.657 378.365 L 156.184 377.892 M 350.243 378.05 L 350.559 378.207 L 350.243 378.05 M 96.497 378.365 L 96.971 378.84 L 96.497 378.365 M 134.867 378.365 L 135.34 378.84 L 134.867 378.365 M 155.236 378.365 L 155.71 378.84 L 155.236 378.365 M 351.191 378.523 L 351.506 378.682 L 351.191 378.523 M 371.401 378.682 L 371.56 378.997 L 371.401 378.682 M 395.402 378.365 L 395.877 378.84 L 395.402 378.365 M 148.13 378.84 L 148.605 379.313 L 148.13 378.84 M 153.815 378.84 L 154.289 379.313 L 153.815 378.84 M 352.138 378.997 L 352.453 379.155 L 352.138 378.997 M 357.506 378.84 L 357.98 379.313 L 357.506 378.84 M 388.297 378.84 L 388.771 379.313 L 388.297 378.84 M 389.244 378.84 L 389.718 379.313 L 389.244 378.84 M 390.192 378.84 L 390.665 379.313 L 390.192 378.84 Z"/>
  <path style="fill: rgb(239, 105, 56); stroke: none;" d="M 393.508 378.84 L 393.981 379.313 L 393.508 378.84 M 402.034 378.84 L 402.508 379.313 L 402.034 378.84 Z"/>
  <path style="fill: rgb(245, 180, 51); stroke: none;" d="M 135.34 379.313 L 135.815 379.786 L 135.34 379.313 M 152.868 379.313 L 153.341 379.786 L 152.868 379.313 M 353.085 379.471 L 353.401 379.628 L 353.085 379.471 M 357.19 379.628 L 357.349 379.944 L 357.19 379.628 M 370.928 379.628 L 371.086 379.944 L 370.928 379.628 Z"/>
  <path style="fill: rgb(239, 105, 56); stroke: none;" d="M 396.823 379.313 L 397.298 379.786 L 396.823 379.313 Z"/>
  <path style="fill: rgb(245, 180, 51); stroke: none;" d="M 148.605 379.786 L 149.078 380.261 L 148.605 379.786 M 152.236 379.944 L 152.552 380.103 L 152.236 379.944 M 354.033 379.944 L 354.348 380.103 L 354.033 379.944 Z"/>
  <path style="fill: rgb(239, 105, 56); stroke: none;" d="M 397.771 379.786 L 398.244 380.261 L 397.771 379.786 Z"/>
  <path style="fill: rgb(245, 180, 51); stroke: none;" d="M 97.129 380.576 L 97.287 380.892 L 97.129 380.576 M 135.815 380.261 L 136.288 380.734 L 135.815 380.261 M 150.973 380.261 L 151.447 380.734 L 150.973 380.261 M 354.98 380.418 L 355.296 380.576 L 354.98 380.418 M 370.454 380.576 L 370.612 380.892 L 370.454 380.576 M 391.139 380.261 L 391.613 380.734 L 391.139 380.261 Z"/>
  <path style="fill: rgb(239, 105, 56); stroke: none;" d="M 395.719 380.418 L 396.033 380.576 L 395.719 380.418 M 396.823 380.261 L 397.298 380.734 L 396.823 380.261 Z"/>
  <path style="fill: rgb(245, 180, 51); stroke: none;" d="M 149.078 380.734 L 149.551 381.207 L 149.078 380.734 M 150.026 380.734 L 150.499 381.207 L 150.026 380.734 M 356.559 380.734 L 357.033 381.207 L 356.559 380.734 Z"/>
  <path style="fill: rgb(239, 105, 56); stroke: none;" d="M 398.086 380.892 L 398.402 381.05 L 398.086 380.892 M 399.666 380.734 L 400.14 381.207 L 399.666 380.734 Z"/>
  <path style="fill: rgb(245, 180, 51); stroke: none;" d="M 136.288 381.207 L 136.761 381.682 L 136.288 381.207 M 369.98 381.524 L 370.139 381.839 L 369.98 381.524 M 391.613 381.207 L 392.087 381.682 L 391.613 381.207 M 393.034 381.207 L 393.508 381.682 L 393.034 381.207 Z"/>
  <path style="fill: rgb(239, 105, 56); stroke: none;" d="M 400.613 381.207 L 401.087 381.682 L 400.613 381.207 Z"/>
  <path style="fill: rgb(245, 180, 51); stroke: none;" d="M 97.445 381.682 L 97.918 382.155 L 97.445 381.682 M 388.771 381.682 L 389.244 382.155 L 388.771 381.682 Z"/>
  <path style="fill: rgb(239, 105, 56); stroke: none;" d="M 398.719 381.682 C 398.327 383.017 398.344 383.522 399.666 384.05 L 398.719 381.682 Z"/>
  <path style="fill: rgb(245, 180, 51); stroke: none;" d="M 369.507 382.471 L 369.665 382.787 L 369.507 382.471 M 390.665 382.155 L 391.139 382.629 L 390.665 382.155 Z"/>
  <path style="fill: rgb(239, 105, 56); stroke: none;" d="M 397.298 382.155 L 397.771 382.629 L 397.298 382.155 M 399.666 382.155 L 400.14 382.629 L 399.666 382.155 Z"/>
  <path style="fill: rgb(245, 180, 51); stroke: none;" d="M 97.918 382.629 L 98.392 383.103 L 97.918 382.629 M 136.761 382.629 L 137.236 383.103 L 136.761 382.629 M 393.034 382.629 L 393.508 383.103 L 393.034 382.629 Z"/>
  <path style="fill: rgb(239, 105, 56); stroke: none;" d="M 401.561 382.629 L 402.034 383.103 L 401.561 382.629 M 402.508 382.629 L 402.982 383.103 L 402.508 382.629 M 403.455 382.629 L 403.929 383.103 L 403.455 382.629 Z"/>
  <path style="fill: rgb(245, 180, 51); stroke: none;" d="M 369.033 383.418 L 369.191 383.734 L 369.033 383.418 Z"/>
  <path style="fill: rgb(239, 105, 56); stroke: none;" d="M 400.14 383.103 L 400.613 384.524 L 400.14 384.997 L 398.719 384.524 L 400.613 386.419 L 401.561 384.997 L 401.561 384.524 L 400.14 383.103 M 404.403 383.103 L 404.877 383.576 L 404.403 383.103 Z"/>
  <path style="fill: rgb(245, 180, 51); stroke: none;" d="M 137.236 383.576 L 137.709 384.05 L 137.236 383.576 M 393.981 383.576 L 394.455 384.05 L 393.981 383.576 Z"/>
  <path style="fill: rgb(239, 105, 56); stroke: none;" d="M 402.034 383.576 L 402.508 384.05 L 402.034 383.576 Z"/>
  <path style="fill: rgb(245, 180, 51); stroke: none;" d="M 98.55 384.366 L 98.708 384.681 L 98.55 384.366 M 368.559 384.366 L 368.717 384.681 L 368.559 384.366 M 393.034 384.05 L 393.508 384.524 L 393.034 384.05 M 395.402 384.05 L 395.877 384.524 L 395.402 384.05 Z"/>
  <path style="fill: rgb(239, 105, 56); stroke: none;" d="M 403.455 384.05 L 403.929 384.524 L 403.455 384.05 M 404.56 384.84 L 404.719 385.155 L 404.56 384.84 Z"/>
  <path style="fill: rgb(245, 180, 51); stroke: none;" d="M 138.182 384.997 L 138.657 385.471 L 138.182 384.997 M 367.928 384.997 L 368.401 385.471 L 367.928 384.997 M 400.14 384.997 L 400.613 385.471 L 400.14 384.997 Z"/>
  <path style="fill: rgb(239, 105, 56); stroke: none;" d="M 405.35 384.997 L 405.824 385.471 L 405.35 384.997 Z"/>
  <path style="fill: rgb(245, 180, 51); stroke: none;" d="M 98.866 385.471 L 99.339 385.945 L 98.866 385.471 M 138.657 385.945 L 139.13 386.419 L 138.657 385.945 M 367.454 385.945 L 367.928 386.419 L 367.454 385.945 Z"/>
  <path style="fill: rgb(239, 105, 56); stroke: none;" d="M 402.508 385.945 L 402.982 386.419 L 402.508 385.945 M 405.824 385.945 L 406.298 386.419 L 405.824 385.945 Z"/>
  <path style="fill: rgb(245, 180, 51); stroke: none;" d="M 99.497 386.734 L 99.655 387.05 L 99.497 386.734 M 367.138 386.734 L 367.296 387.05 L 367.138 386.734 M 397.298 386.419 L 397.771 386.892 L 397.298 386.419 M 99.813 387.366 L 100.287 387.84 L 99.813 387.366 M 139.604 387.366 L 140.078 387.84 L 139.604 387.366 M 366.507 387.366 L 366.98 387.84 L 366.507 387.366 M 401.087 387.366 L 400.613 388.313 L 401.087 387.366 Z"/>
  <path style="fill: rgb(239, 105, 56); stroke: none;" d="M 402.508 387.366 L 404.403 389.261 L 405.35 388.313 L 405.35 387.84 L 403.929 388.313 L 402.508 387.366 Z"/>
  <path style="fill: rgb(245, 180, 51); stroke: none;" d="M 366.033 387.84 L 366.507 388.313 L 366.033 387.84 M 397.771 387.84 L 398.244 388.313 L 397.771 387.84 Z"/>
  <path style="fill: rgb(239, 105, 56); stroke: none;" d="M 407.719 387.84 L 408.192 388.313 L 407.719 387.84 Z"/>
  <path style="fill: rgb(245, 180, 51); stroke: none;" d="M 399.666 388.313 L 400.613 389.261 L 399.666 388.313 M 100.287 388.787 L 100.76 389.261 L 100.287 388.787 M 140.551 388.787 L 141.025 389.261 L 140.551 388.787 M 365.559 388.787 L 366.033 389.261 L 365.559 388.787 M 398.244 388.787 L 398.719 389.261 L 398.244 388.787 M 402.034 388.787 L 402.508 389.261 L 402.034 388.787 M 365.243 389.576 L 365.402 389.892 L 365.243 389.576 Z"/>
  <path style="fill: rgb(239, 105, 56); stroke: none;" d="M 411.508 389.261 L 411.982 389.734 L 411.508 389.261 Z"/>
  <path style="fill: rgb(245, 180, 51); stroke: none;" d="M 100.76 389.734 L 101.235 390.208 L 100.76 389.734 M 141.025 389.734 L 141.499 390.208 L 141.025 389.734 M 402.982 389.734 L 403.455 390.208 L 402.982 389.734 M 364.612 390.208 L 365.085 390.682 L 364.612 390.208 M 401.087 390.208 L 401.561 390.682 L 401.087 390.208 M 364.296 390.997 L 364.454 391.313 L 364.296 390.997 M 402.982 390.682 L 403.455 391.155 L 402.982 390.682 M 101.235 391.155 L 101.708 391.629 L 101.235 391.155 M 141.972 391.155 L 142.446 391.629 L 141.972 391.155 M 406.771 391.155 L 407.245 391.629 L 406.771 391.155 M 101.708 391.629 L 102.181 392.103 L 101.708 391.629 M 142.446 391.629 L 142.92 392.103 L 142.446 391.629 M 363.664 391.629 L 364.138 392.103 L 363.664 391.629 M 404.403 391.629 L 404.877 392.103 L 404.403 391.629 M 406.298 391.629 L 406.771 392.103 L 406.298 391.629 M 405.981 392.418 L 406.14 392.734 L 405.981 392.418 M 102.181 392.576 L 102.656 393.05 L 102.181 392.576 M 142.92 392.576 L 143.394 393.05 L 142.92 392.576 M 363.191 392.576 L 363.664 393.05 L 363.191 392.576 M 143.394 393.05 L 143.867 393.524 L 143.394 393.05 M 362.718 393.05 L 363.191 393.524 L 362.718 393.05 M 405.35 393.05 L 404.877 394.471 L 405.35 393.05 M 102.656 393.524 L 103.129 393.998 L 102.656 393.524 M 143.867 393.524 L 144.341 393.998 L 143.867 393.524 M 362.401 393.84 L 362.56 394.155 L 362.401 393.84 M 144.341 394.471 L 144.815 394.945 L 144.341 394.471 M 361.928 394.787 L 362.085 395.103 L 361.928 394.787 M 404.56 394.787 L 404.719 395.103 L 404.56 394.787 M 103.129 394.945 L 103.602 395.419 L 103.129 394.945 Z"/>
  <path style="fill: rgb(239, 105, 56); stroke: none;" d="M 410.087 394.945 L 410.561 395.419 L 410.087 394.945 Z"/>
  <path style="fill: rgb(245, 180, 51); stroke: none;" d="M 361.296 395.419 L 361.77 395.892 L 361.296 395.419 M 403.929 395.419 L 404.403 395.892 L 403.929 395.419 M 103.602 395.892 L 104.077 396.366 L 103.602 395.892 M 145.288 395.892 L 145.762 396.366 L 145.288 395.892 M 360.822 395.892 L 361.296 396.366 L 360.822 395.892 M 403.613 396.208 L 403.771 396.524 L 403.613 396.208 M 360.349 396.366 L 360.822 396.84 L 360.349 396.366 M 104.234 397.156 L 104.392 397.471 L 104.234 397.156 M 403.139 397.156 L 403.298 397.471 L 403.139 397.156 M 146.236 397.313 L 146.709 397.787 L 146.236 397.313 M 360.032 397.63 L 360.191 397.945 L 360.032 397.63 M 402.508 397.787 L 402.982 398.261 L 402.508 397.787 M 359.401 398.261 L 359.875 398.734 L 359.401 398.261 M 402.192 398.577 L 402.35 398.892 L 402.192 398.577 M 147.184 398.734 L 147.657 399.209 L 147.184 398.734 M 358.928 398.734 L 359.401 399.209 L 358.928 398.734 M 147.657 399.209 L 148.13 399.682 L 147.657 399.209 M 358.454 399.209 L 358.928 399.682 L 358.454 399.209 M 401.561 399.209 L 402.034 399.682 L 401.561 399.209 M 105.498 399.682 L 105.971 400.155 L 105.498 399.682 M 148.13 399.682 L 148.605 400.155 L 148.13 399.682 M 358.138 399.998 L 358.296 400.313 L 358.138 399.998 M 195.5 401.576 L 197.869 401.103 L 195.5 401.576 M 401.087 400.155 L 401.561 400.63 L 401.087 400.155 M 105.971 400.63 L 106.445 401.103 L 105.971 400.63 Z"/>
  <path style="fill: rgb(239, 105, 56); stroke: none;" d="M 184.132 415.788 L 184.132 416.262 C 185.564 418.188 186.14 420.779 188.87 421.144 C 191.458 421.49 192.745 419.054 194.002 417.209 C 196.879 412.985 200.432 409.07 202.606 404.419 L 196.929 401.114 L 192.931 404.893 L 184.132 415.788 Z"/>
  <path style="fill: rgb(245, 180, 51); stroke: none;" d="M 308.242 400.63 L 307.767 401.576 L 308.242 400.63 Z"/>
  <path style="fill: rgb(239, 105, 56); stroke: none;" d="M 308.715 400.63 C 307.297 401.773 304.364 403.344 304.26 405.385 C 304.19 406.763 305.335 408.119 306.1 409.156 C 308.144 411.929 311.974 419.731 315.366 420.661 C 317.248 421.179 321.21 418.825 321.112 416.717 C 321.039 415.161 319.46 413.607 318.539 412.472 C 317.133 410.739 315.699 409.035 314.344 407.261 C 312.588 404.958 310.977 402.459 308.715 400.63 Z"/>
  <path style="fill: rgb(239, 105, 56); stroke: none;" d="M 251.96 418.197 C 247.239 420.452 247.811 432.53 248.917 436.631 C 249.501 438.792 251.494 442.197 254.219 440.872 C 258.675 438.704 257.752 426.893 256.721 422.893 C 256.237 421.017 254.615 416.93 251.96 418.197 Z"/>
  <rect x="138.94" y="115.247" width="18.324" height="17.325" style="stroke: rgb(0, 0, 0); fill: rgb(239, 105, 56); paint-order: stroke markers; stroke-opacity: 0;"/>
  <path style="fill: rgb(45, 24, 24); stroke: rgb(255, 255, 255);" d="M 160.33 138.345 C 160.12 138.379 159.621 138.636 159.387 138.947 C 159.309 139.051 159.403 138.853 159.325 138.932 C 159.31 138.948 158.655 139.367 158.655 139.395"/>
  <rect x="155.825" y="134.666" width="3.812" height="2.895" style="stroke: rgb(0, 0, 0); stroke-opacity: 0; fill: rgb(239, 105, 56);"/>
  <rect x="377.376" y="364.762" width="33.048" height="25.936" style="stroke: rgb(0, 0, 0); fill: rgb(239, 105, 56); stroke-opacity: 0;" rx="5.191" ry="5.191"/>
  <path style="fill: rgb(216, 216, 216); stroke: rgb(239, 105, 56);" d="M 377.544 366.685 C 377.475 367.103 377.427 367.525 377.367 367.946 C 377.321 368.265 377.156 368.502 377.047 368.776 C 376.951 369.013 376.86 369.205 376.693 369.372 C 376.668 369.396 376.606 369.381 376.582 369.405 C 376.555 369.433 376.489 369.384 376.482 369.372 C 376.437 369.28 376.471 369.056 376.471 368.952 C 376.471 368.932 376.458 368.833 376.471 368.82 C 376.497 368.794 376.471 368.709 376.505 368.675 C 376.585 368.595 376.608 368.365 376.648 368.244 C 376.708 368.067 376.824 367.823 376.936 367.656 C 377.033 367.51 377.087 367.437 377.179 367.283 C 377.272 367.128 377.363 366.969 377.456 366.829 C 377.472 366.805 377.544 366.744 377.544 366.741"/>
  <path style="fill: rgb(216, 216, 216); stroke: rgb(239, 105, 56);" d="M 377.149 367.781 C 377.149 367.939 377.114 368.088 377.067 368.239 C 377.035 368.338 377 368.438 376.962 368.535 C 376.919 368.642 376.89 368.733 376.818 368.805 C 376.807 368.816 376.752 368.888 376.752 368.888 C 376.752 368.888 376.748 368.829 376.748 368.822 C 376.748 368.737 376.741 368.646 376.752 368.561 C 376.782 368.341 376.827 368.088 376.936 367.89 C 376.969 367.829 377.003 367.734 377.067 367.702 C 377.091 367.69 377.083 367.769 377.083 367.781 C 377.083 367.871 377.062 367.961 377.04 368.047 C 377.004 368.183 376.98 368.323 376.936 368.457 C 376.913 368.525 376.877 368.588 376.857 368.657 C 376.835 368.731 376.798 368.774 376.77 368.844 C 376.76 368.869 376.754 368.89 376.748 368.914 C 376.747 368.92 376.741 368.959 376.735 368.954 C 376.727 368.945 376.736 368.929 376.73 368.918 C 376.705 368.866 376.729 368.74 376.748 368.687 C 376.824 368.486 376.862 368.271 376.94 368.069 C 376.96 368.016 376.988 367.916 377.027 367.877 C 377.041 367.862 377.114 367.909 377.119 367.92 C 377.153 367.988 377.073 368.127 377.053 368.187 C 377.029 368.26 376.996 368.332 376.966 368.405 C 376.933 368.486 376.891 368.563 376.857 368.644 C 376.834 368.697 376.822 368.763 376.796 368.814"/>
  <path style="fill: rgb(239, 105, 56); stroke: none;" d="M 359.95 371.953 C 356.847 371.066 353.895 369.541 350.949 368.229 C 349.195 367.449 347.467 366.596 345.738 365.758 C 344.549 365.18 342.915 364.107 341.526 364.366 C 339.679 364.711 337.448 369.127 338.545 370.771 C 339.894 372.791 344.516 374.049 346.686 374.996 C 352.981 377.745 358.846 382.128 359.95 371.953 Z"/>
  <path style="fill: rgb(239, 105, 56); stroke: none;" d="M 336.573 266.248 L 336.573 266.721 C 338.006 268.647 338.582 271.239 341.311 271.603 C 343.899 271.95 345.187 269.514 346.444 267.669 C 349.32 263.445 352.873 259.53 355.048 254.879 L 349.37 251.574 L 345.373 255.352 L 336.573 266.248 Z"/>
  <path style="fill: rgb(239, 105, 56); stroke: none;" d="M 304.81 220.556 C 303.39 221.7 300.458 223.27 300.354 225.312 C 300.285 226.69 301.429 228.045 302.194 229.082 C 304.239 231.856 308.068 239.657 311.459 240.588 C 313.343 241.105 317.305 238.752 317.205 236.643 C 317.132 235.087 315.554 233.533 314.633 232.398 C 313.228 230.665 311.792 228.963 310.439 227.188 C 308.681 224.885 307.071 222.386 304.81 220.556 Z" transform="matrix(0.438371, 0.898794, -0.898794, 0.438371, 380.688427, -148.01244)"/>
  <rect x="214.73" y="172.393" width="2.339" height="5.241" style="stroke: rgb(0, 0, 0); stroke-miterlimit: 1; stroke-opacity: 0; fill: rgb(239, 105, 56);" transform="matrix(0.994522, -0.104528, 0.104528, 0.994522, 116.866047, 153.144795)"/>
  <rect x="214.668" y="177.399" width="2.424" height="0.291" style="fill: rgb(239, 105, 56); stroke: rgb(239, 105, 56);" transform="matrix(0.992546, -0.121869, 0.121869, 0.992546, 114.012371, 157.663732)"/>
  <rect x="195.447" y="182.016" width="14.484" height="18.262" style="stroke: rgb(0, 0, 0); stroke-opacity: 0; fill: rgb(239, 105, 56);"/>
  <rect x="187.23" y="165.651" width="6.059" height="10.098" style="stroke: rgb(0, 0, 0); fill: rgb(239, 105, 56); stroke-opacity: 0;"/>
</svg>