<svg width="300" height="300" viewBox="0 0 300 300" fill="none" xmlns="http://www.w3.org/2000/svg">
<path d="M250 150C250 123.478 239.464 98.043 220.711 79.2893C201.957 60.5357 176.522 50 150 50C123.478 50 98.043 60.5357 79.2893 79.2893C60.5357 98.0429 50 123.478 50 150L81 150C81 131.7 88.2696 114.15 101.21 101.21C114.15 88.2696 131.7 81 150 81C168.3 81 185.85 88.2696 198.79 101.21C211.73 114.15 219 131.7 219 150H250Z" fill="white"/>
<path d="M50 157C50 183.522 60.5357 208.957 79.2893 227.711C98.0429 246.464 123.478 257 150 257C176.522 257 201.957 246.464 220.711 227.711C239.464 208.957 250 183.522 250 157L219 157C219 175.3 211.73 192.85 198.79 205.79C185.85 218.73 168.3 226 150 226C131.7 226 114.15 218.73 101.21 205.79C88.2696 192.85 81 175.3 81 157L50 157Z" fill="white"/>
<ellipse cx="150.5" cy="150" rx="37.5" ry="37" fill="white"/>
<rect x="208" y="140" width="60" height="20" fill="white"/>
<rect x="33" y="140" width="60" height="20" fill="white"/>
<rect x="140" y="91" width="60" height="20" transform="rotate(-90 140 91)" fill="white"/>
<rect x="140" y="269" width="60" height="20" transform="rotate(-90 140 269)" fill="white"/>
</svg>
