<?xml version="1.0" standalone="yes"?>
<svg xmlns="http://www.w3.org/2000/svg" width="800" height="800">
<path style="fill:white; stroke:none;" d="M619 40.6489C612.423 42.6323 607.13 48.6302 602 52.9197C595.016 58.7599 582.035 67.1336 580.742 77C579.93 83.2049 586.094 88.1304 590 91.9962C600.902 102.787 613.315 112.466 625 122.421C634.091 130.167 651.551 151.817 665 147.892C681.167 143.174 706.188 118.318 696.084 100.015C688.308 85.9276 668.11 74.0564 656 63.5756C646.631 55.4666 633 36.427 619 40.6489z"/>
<path style="fill:white; stroke:none;" d="M619 41.7029C612.957 43.744 607.851 49.4451 603 53.3889C596.266 58.8636 581.973 68.1789 581.731 78C581.581 84.0797 587.95 88.7264 592 92.2847C602.608 101.605 613.435 110.672 624 120.05C634.032 128.956 651.892 151.245 667 146.131C673.588 143.901 678.936 140.353 683.384 134.996C688.111 129.303 694.19 122.203 696.351 115C702.446 94.6856 669.443 77.3564 657 65.9144C648.029 57.6653 632.733 37.0644 619 41.7029z"/>
<path style="fill:white; stroke:none;" d="M529.015 94.1759C522.021 94.965 512.66 110.879 508.271 116C490.253 137.022 472.196 158.017 454.13 179C415.055 224.385 375.586 269.429 336.728 315L308.579 348C305.864 351.187 299.676 356.242 300.748 361C302.241 367.633 313.125 374.042 318 378.282C334.002 392.199 350.14 405.977 366 420.05C380.133 432.591 394.695 444.656 409 457C413.028 460.476 420.284 469.436 426 469.368C432.109 469.295 438.261 459.175 441.754 455C454.118 440.221 466.675 425.57 479.282 411C522.771 360.741 565.155 309.566 608.272 259C619.586 245.731 630.634 232.219 642 219C645.499 214.931 653.894 207.654 654.168 202.004C654.341 198.429 650.362 195.919 647.999 193.87C641.388 188.137 634.641 182.567 628 176.87C603.945 156.235 579.838 135.616 556 114.715C550.661 110.034 536.475 93.3341 529.015 94.1759z"/>
<path style="fill:white; stroke:none;" d="M527.428 96.0718C521.525 99.0859 516.414 108.024 512.13 113L476.87 154C436.633 200.751 396.106 247.249 355.87 294C342.736 309.26 329.821 324.704 316.729 340C312.466 344.98 303.087 352.419 301.748 358.996C301.011 362.613 304.698 365.066 307.005 367.166C313.584 373.154 320.317 378.972 327 384.845C351.826 406.66 376.886 428.234 402 449.729C406.871 453.898 421.208 470.505 428 467.863C434.093 465.494 439.031 456.851 443.08 452C454.299 438.559 465.709 425.27 477.13 412C518.785 363.602 559.607 314.5 601.131 266C614.175 250.765 627.07 235.4 639.92 220C643.574 215.621 652.647 208.031 653.118 202.089C653.641 195.485 634.79 183.871 630 180C605.027 159.822 581.305 137.976 557 117C550.348 111.259 543.736 105.515 537 99.8735C534.469 97.7537 531.022 94.2368 527.428 96.0718z"/>
<path style="fill:white; stroke:none;" d="M157 602L158 602C158.238 592.122 166.051 583.923 171.333 576C182.379 559.431 193.384 542.812 204.053 526C210.789 515.386 224.406 501.542 226.59 489C228.331 479.007 212.833 476.566 213.423 467C213.743 461.816 219.474 456.741 222.586 453C231.788 441.94 241.138 430.991 250.424 420C253.553 416.297 258.072 408.636 263.001 407.342C267.488 406.164 273.936 413.371 277 416.001C288.463 425.839 299.879 435.859 311 446.086C328.103 461.814 345.409 477.387 363 492.576C369.613 498.287 382.576 506.433 385.377 515C387.368 521.087 379.518 527.973 375.95 532C365.762 543.497 356.452 555.756 345.975 567C342.597 570.626 338.44 577.471 333 577.954C323.98 578.754 316.599 565.236 308 563C313.739 568.155 323.938 578.911 332 579.396C337.218 579.71 341.605 574.508 344.715 570.999C352.57 562.135 360.332 553.19 367.804 544C373.986 536.397 391.503 523.296 385.682 512.001C380.568 502.077 367.122 494.383 359 486.914C337.309 466.967 315.037 447.613 293 428.05C286.087 421.913 279.449 415.495 272 410C269.254 407.974 265.704 404.163 262 405.832C256.509 408.307 251.985 415.48 248.25 420C239.652 430.405 230.681 440.507 222.197 451C218.54 455.523 212.591 460.819 212.177 467C211.308 480.002 231.252 480.765 222.304 495C207.079 519.22 191.353 543.198 175.485 567C168.593 577.338 157.115 589.135 157 602z"/>
<path style="fill:white; stroke:none;" d="M137 680C154.914 673.629 170.782 664.214 188 656.309C196.703 652.313 207.216 650.096 215 644.507C246.868 621.624 270.779 587.818 303 565.42C314.554 557.388 322.274 580.764 333.999 578.242C339.924 576.968 344.942 569.287 348.715 565C360.221 551.925 376.401 537.382 384.567 522C390.608 510.621 371.212 498.804 364 492.576C339.042 471.026 314.484 448.905 290 426.83C284.76 422.106 270.829 405.036 263.001 406.751C257.676 407.917 252.888 416.07 249.59 420C240.895 430.359 232.064 440.606 223.414 451C219.882 455.243 214.23 460.305 213.298 466C211.599 476.379 228.24 479.334 226.303 489C224.152 499.737 212.663 511.963 206.667 521C191.296 544.171 175.114 567.223 160.711 591C155.437 599.705 155.603 613.109 153.127 623C148.23 642.563 140.534 660.101 137 680z"/>
<path style="fill:white; stroke:none;" d="M305.667 563.333L306.333 563.667L305.667 563.333M301 567L305 564L301 567M300 567L301 568L300 567M299 568L300 569L299 568M298 569L299 570L298 569M293 574L298 570L293 574M292 574L293 575L292 574M291 575L292 576L291 575M290 576L291 577L290 576M289 577L290 578L289 577M288 578L289 579L288 578M282 584L288 579L282 584M281 584L282 585L281 584M280 585L281 586L280 585M279 586L280 587L279 586M278 587L279 588L278 587M277 588L278 589L277 588M276 589L277 590L276 589M271 594L276 590L271 594M270 594L271 595L270 594M269 595L270 596L269 595M268 596L269 597L268 596M267 597L268 598L267 597M266 598L267 599L266 598M261 603L266 599L261 603M156 603L156 608L157 608L156 603M260 603L261 604L260 603M259 604L260 605L259 604M258 605L259 606L258 605M257 606L258 607L257 606M256 607L257 608L256 607M155 608L154 618L155 618L155 608M255 608L256 609L255 608M250 613L255 609L250 613M249 613L250 614L249 613M248 614L249 615L248 614M247 615L248 616L247 615M246 616L247 617L246 616M245 617L246 618L245 617M153 618L153 622L154 622L153 618M244 618L245 619L244 618M237 625L244 619L237 625M152 622L152 626L153 626L152 622M236 625L237 626L236 625M151 626L150 633L151 633L151 626M235 626L236 627L235 626M234 627L235 628L234 627M233 628L234 629L233 628M232 629L233 630L232 629M230 630L230 632L232 630L230 630M223 638L230 632L223 638M149 633L147 641L148 641L149 633M222 638L223 639L222 638M221 639L222 640L221 639M220 640L221 641L220 640M146.333 641.667L146.667 642.333L146.333 641.667M217 643L220 641L217 643M145.333 643.667L145.667 644.333L145.333 643.667M216 643L217 644L216 643M215 644L216 645L215 644M144 645L142 652L143 652L144 645M213.667 645.333L214.333 645.667L213.667 645.333M212 646L213 647L212 646M210.667 647.333L211.333 647.667L210.667 647.333M207 648L207 649L210 649L207 648M204 649L204 650L207 650L204 649M199 651L199 652L204 651L199 651M141 652L141 655L142 655L141 652M196 652L196 653L199 653L196 652M194.667 653.333L195.333 653.667L194.667 653.333M192.667 654.333L193.333 654.667L192.667 654.333M140 655L140 668L141 668L140 655M187 656L187 657L192 656L187 656M185.667 657.333L186.333 657.667L185.667 657.333M183.667 658.333L184.333 658.667L183.667 658.333M181.667 659.333L182.333 659.667L181.667 659.333M179.667 660.333L180.333 660.667L179.667 660.333M177.667 661.333L178.333 661.667L177.667 661.333M393 663L393 664C410.035 664 426.943 661.973 444 662C452.523 662.014 460.897 662.897 464 672C466.111 663.928 454.967 661.163 449 661.015C430.242 660.548 411.703 663 393 663M175.667 662.333L176.333 662.667L175.667 662.333z"/>
<path style="fill:white; stroke:none;" d="M425 662.424C405.9 664.932 386.216 664.334 367 666.17C303.786 672.21 240.467 681.104 180 701.333C160.201 707.957 138.604 715.274 121 726.699C112.11 732.468 107.935 743.984 118.043 751.347C125.871 757.05 134.722 750.886 142 747.247C160.923 737.785 180.801 730.303 201 724.025C261.035 705.369 322.741 698.095 385 692.17C403.582 690.401 422.461 691.473 441 689.286C446.935 688.585 454.653 690.098 459.786 686.262C466.526 681.224 466.481 668.367 458.956 664.164C450.637 659.518 434.153 661.223 425 662.424z"/>
<path style="fill:white; stroke:none;" d="M173.667 663.333L174.333 663.667L173.667 663.333M170 666L173 664L170 666M379 664L379 665L391 665L379 664M365 665L365 666L377 666L365 665M168.667 666.333L169.333 666.667L168.667 666.333M355 666L355 667L365 667L355 666M160 670L160 671L168 668L160 670M346 667L346 668L355 668L346 667M335 668L335 669L345 669L335 668M139 669L130 686L139 681L139 669M327 669L327 670L335 670L327 669M319 670L319 671L327 671L319 670M156 672L156 673L160 672L156 672M312 671L312 672L319 672L312 671M303 672L303 673L311 673L303 672M154.667 673.333L155.333 673.667L154.667 673.333M290 674L290 675L303 674L290 674M465 673L465 677L466 677L465 673M152.667 674.333L153.333 674.667L152.667 674.333M149 675L149 676L152 676L149 675M284 675L284 676L290 676L284 675M146 676L146 677L149 677L146 676M272 677L272 678L284 677L272 677M142 677L142 678L146 678L142 677M464 677L464 681L465 681L464 677M139 680L142 678L139 680M267 678L267 679L272 679L267 678M261 679L261 680L267 680L261 679z"/>
<path style="fill:white; stroke:none;" d="M135 680L132 684L135 680z"/>
<path style="fill:white; stroke:none;" d="M256 680L256 681L261 681L256 680M251 681L251 682L256 682L251 681M463.333 681.667L463.667 682.333L463.333 681.667M247 682L247 683L251 683L247 682M237 684L237 685L246 684L237 684M462.333 683.667L462.667 684.333L462.333 683.667M233 685L233 686L237 686L233 685M461 685L460 687L462 687L461 685M229 686L229 687L233 687L229 686M225 687L225 688L229 688L225 687M458.667 687.333L459.333 687.667L458.667 687.333M221 688L221 689L225 689L221 688M453 688L453 689L458 689L453 688M217 689L217 690L221 690L217 689M439 689L439 690L452 690L439 689M213 690L213 691L217 691L213 690M399 691L399 692L439 691C428.3 686.51 410.586 691 399 691M206 692L206 693L213 692L206 692M382 692L382 693L396 693L382 692M199 694L199 695L206 694L199 694M370 693L370 694L381 694L370 693M360 694L360 695L370 695L360 694M196 695L196 696L199 696L196 695M348 695L348 696L360 696L348 695M193 696L193 697L196 697L193 696M338 696L338 697L347 697L338 696M189 697L189 698L193 698L189 697M330 697L330 698L338 698L330 697M186 698L186 699L189 699L186 698M322 698L322 699L330 699L322 698M183 699L183 700L186 700L183 699M313 699L313 700L321 700L313 699M180 700L180 701L183 701L180 700M306 700L306 701L313 701L306 700M177 701L177 702L180 702L177 701M300 701L300 702L306 702L300 701M174 702L174 703L177 703L174 702M294 702L294 703L300 703L294 702M166 705L166 706L174 704L166 705M289 703L289 704L294 704L289 703M278 705L278 706L289 705L278 705M163 706L163 707L166 707L163 706M272 706L272 707L278 707L272 706M161.667 707.333L162.333 707.667L161.667 707.333M266 707L266 708L271 708L266 707M158 708L158 709L161 709L158 708M261 708L261 709L266 709L261 708M153 710L153 711L158 710L153 710M256 709L256 710L261 710L256 709M251 710L251 711L256 711L251 710M151.667 711.333L152.333 711.667L151.667 711.333M247 711L247 712L251 712L247 711M148 712L148 713L151 713L148 712M243 712L243 713L247 713L243 712M146.667 713.333L147.333 713.667L146.667 713.333M238 713L238 714L243 714L238 713M144.667 714.333L145.333 714.667L144.667 714.333M235 714L235 715L238 715L235 714M139 716L139 717L144 716L139 716M231 715L231 716L235 716L231 715M227 716L227 717L231 717L227 716M137.667 717.333L138.333 717.667L137.667 717.333M223 717L223 718L226 718L223 717M135.667 718.333L136.333 718.667L135.667 718.333M220 718L220 719L223 719L220 718M133.667 719.333L134.333 719.667L133.667 719.333M216 719L216 720L220 720L216 719M131.667 720.333L132.333 720.667L131.667 720.333M212 720L212 721L216 721L212 720M129.667 721.333L130.333 721.667L129.667 721.333M209 721L209 722L212 722L209 721M127.667 722.333L128.333 722.667L127.667 722.333M206 722L206 723L209 723L206 722M125.667 723.333L126.333 723.667L125.667 723.333M202 723L202 724L206 724L202 723M123.667 724.333L124.333 724.667L123.667 724.333M199 724L199 725L202 725L199 724M122 725L123 726L122 725M196 725L196 726L199 726L196 725M120.667 726.333L121.333 726.667L120.667 726.333M193 726L193 727L196 727L193 726M117 729L120 727L117 729M190 727L190 728L193 728L190 727M187 728L187 729L190 729L187 728M114 732L117 729L114 732M184 729L184 730L187 730L184 729M181 730L181 731L184 731L181 730M178 731L178 732L181 732L178 731M113 732L114 733L113 732M176.667 732.333L177.333 732.667L176.667 732.333M112 733L111 744L112 744L112 733M173 733L173 734L176 734L173 733M170 734L170 735L173 735L170 734M168.667 735.333L169.333 735.667L168.667 735.333M166.667 736.333L167.333 736.667L166.667 736.333M163 737L163 738L166 738L163 737M158 739L158 740L163 739L158 739M156.667 740.333L157.333 740.667L156.667 740.333M151 742L151 743L156 742L151 742M149.667 743.333L150.333 743.667L149.667 743.333M112 744L113 748L114 748L112 744M147.667 744.333L148.333 744.667L147.667 744.333M145.667 745.333L146.333 745.667L145.667 745.333M143.667 746.333L144.333 746.667L143.667 746.333M141.667 747.333L142.333 747.667L141.667 747.333M114 748L115 749L114 748M139.667 748.333L140.333 748.667L139.667 748.333M115 749L115 751L117 751L115 749M137.667 749.333L138.333 749.667L137.667 749.333M135.667 750.333L136.333 750.667L135.667 750.333M117 751L118 752L117 751M133.667 751.333L134.333 751.667L133.667 751.333M118.667 752.333L119.333 752.667L118.667 752.333M131.667 752.333L132.333 752.667L131.667 752.333M120.667 753.333L121.333 753.667L120.667 753.333M122 754L122 755L131 754L122 754z"/>
</svg>
