<svg width="100" height="100" viewBox="0 0 100 100" fill="none" xmlns="http://www.w3.org/2000/svg">
<g clip-path="url(#clip0_7_21)">
<path d="M23.5342 81.8008H19.0898C16.2871 81.694 13.6979 80.8932 11.3223 79.3984C8.97331 77.9036 7.07812 75.9284 5.63672 73.4727C4.22201 70.9902 3.51465 68.2809 3.51465 65.3447L3.59473 39.3594C3.59473 36.4499 4.28874 33.7806 5.67676 31.3516C7.06478 28.9225 8.93327 26.9606 11.2822 25.4658C13.6579 23.9443 16.2604 23.1302 19.0898 23.0234H23.6943C23.9613 23.0234 24.0947 23.1302 24.0947 23.3438V32.6328C24.0947 32.8464 23.9613 32.9531 23.6943 32.9531H19.0098C17.4349 32.9531 16.1003 33.5804 15.0059 34.835C13.9115 36.0895 13.3643 37.5977 13.3643 39.3594V65.3447C13.3643 67.0264 13.9248 68.5078 15.0459 69.7891C16.167 71.0436 17.4883 71.751 19.0098 71.9111H23.4541C23.721 71.9111 23.8545 72.0179 23.8545 72.2314L23.9346 81.4805C23.9346 81.694 23.8011 81.8008 23.5342 81.8008ZM40.1104 81H30.8213C30.6077 81 30.501 80.8932 30.501 80.6797V71.3906C30.501 71.1771 30.6077 71.0703 30.8213 71.0703H40.1104C40.3239 71.0703 40.4307 71.1771 40.4307 71.3906V80.6797C40.4307 80.8932 40.3239 81 40.1104 81ZM60.1299 31.5518L65.4551 27.708L68.9785 32.4727L62.1719 36.4766L68.9785 40.5605L65.375 45.3252L60.21 41.4014L60.5303 48.6084H54.5645L54.8848 41.4814L49.7197 45.4854L46.1963 40.7207L53.0029 36.5566L46.1162 32.2725L49.7197 27.5479L54.9648 31.5518L54.5645 24.0244H60.6104L60.1299 31.5518ZM80.75 81.8008H76.3857C76.1188 81.8008 75.9854 81.694 75.9854 81.4805V72.2314C75.9854 72.0179 76.1188 71.9111 76.3857 71.9111H80.75C82.3783 71.751 83.7529 71.0436 84.874 69.7891C85.9951 68.5078 86.5557 67.0264 86.5557 65.3447V39.3594C86.5557 37.5977 86.0085 36.0895 84.9141 34.835C83.8197 33.5804 82.4316 32.9531 80.75 32.9531H76.2256C75.9587 32.9531 75.8252 32.8464 75.8252 32.6328V23.3438C75.8252 23.1302 75.9587 23.0234 76.2256 23.0234H80.8301C83.6862 23.1302 86.2887 23.931 88.6377 25.4258C91.0133 26.9473 92.8818 28.9225 94.2432 31.3516C95.6312 33.7806 96.3252 36.4499 96.3252 39.3594L96.4053 65.3447C96.4053 68.2809 95.6979 70.9769 94.2832 73.4326C92.8685 75.915 90.9733 77.9036 88.5977 79.3984C86.2487 80.8932 83.6328 81.694 80.75 81.8008Z" fill="white"/>
</g>
<defs>
<clipPath id="clip0_7_21">
<rect width="100" height="100" fill="white"/>
</clipPath>
</defs>
</svg>
