<svg width="516" height="497" viewBox="0 0 516 497" xmlns="http://www.w3.org/2000/svg">
<g transform="translate(0.000000,497.000000) scale(0.100000,-0.100000)" fill="#000000" stroke="none">
<path d="M499 4647 c-147 -50 -266 -176 -303 -322 -14 -52 -16 -267 -16 -1886
0 -1192 4 -1845 10 -1880 30 -160 174 -312 335 -354 52 -13 292 -15 2085 -15
1799 0 2032 2 2085 16 109 28 208 102 276 207 73 113 69 -16 69 2019 0 1992 2
1896 -57 1998 -61 103 -165 187 -274 221 -59 18 -126 19 -2102 19 l-2042 -1
-66 -22z m1921 -2407 l0 -1680 -895 0 c-647 0 -901 3 -919 11 -59 27 -56 -75
-56 1713 l0 1636 935 0 935 0 0 -1680z m2250 44 c0 -1788 3 -1686 -56 -1713
-18 -8 -272 -11 -919 -11 l-895 0 0 1680 0 1680 935 0 935 0 0 -1636z" fill="white"/>
</g>
</svg>
